<?xml version="1.0" encoding="UTF-8"?>
<svg xmlns="http://www.w3.org/2000/svg"
     viewBox="-1 -1 154.40 111.86"
     width="154.40"
     height="111.86"
     role="img">
  <!-- Photoshop Layer Style recreation:
       1px outside stroke + 2px inside stroke + 100% normal color overlay -->
  <g>
    <!-- 1px outside stroke -->
      <circle cx="118.03" cy="51.96" r="13.12" fill="#b0e7d9"/>
      <circle cx="130.14" cy="32.71" r="13.12" fill="#b0e7d9"/>
      <circle cx="140.28" cy="12.12" r="13.12" fill="#b0e7d9"/>
      <circle cx="100.44" cy="67.88" r="13.12" fill="#b0e7d9"/>
      <circle cx="80.96" cy="81.43" r="13.12" fill="#b0e7d9"/>
      <circle cx="59.09" cy="91.64" r="13.12" fill="#b0e7d9"/>
      <circle cx="35.57" cy="96.16" r="13.12" fill="#b0e7d9"/>
      <circle cx="12.12" cy="97.74" r="13.12" fill="#b0e7d9"/>
    <!-- 2px inside stroke -->
      <circle cx="118.03" cy="51.96" r="12.12" fill="#e9fff9"/>
      <circle cx="130.14" cy="32.71" r="12.12" fill="#e9fff9"/>
      <circle cx="140.28" cy="12.12" r="12.12" fill="#e9fff9"/>
      <circle cx="100.44" cy="67.88" r="12.12" fill="#e9fff9"/>
      <circle cx="80.96" cy="81.43" r="12.12" fill="#e9fff9"/>
      <circle cx="59.09" cy="91.64" r="12.12" fill="#e9fff9"/>
      <circle cx="35.57" cy="96.16" r="12.12" fill="#e9fff9"/>
      <circle cx="12.12" cy="97.74" r="12.12" fill="#e9fff9"/>
    <!-- color overlay -->
      <circle cx="118.03" cy="51.96" r="10.12" fill="#ffffff"/>
      <circle cx="130.14" cy="32.71" r="10.12" fill="#ffffff"/>
      <circle cx="140.28" cy="12.12" r="10.12" fill="#ffffff"/>
      <circle cx="100.44" cy="67.88" r="10.12" fill="#ffffff"/>
      <circle cx="80.96" cy="81.43" r="10.12" fill="#ffffff"/>
      <circle cx="59.09" cy="91.64" r="10.12" fill="#ffffff"/>
      <circle cx="35.57" cy="96.16" r="10.12" fill="#ffffff"/>
      <circle cx="12.12" cy="97.74" r="10.12" fill="#ffffff"/>
  </g>
</svg>
